# xmcd
#
# Track frame offsets:
# 150
# 14063
# 30868
# 47224
# 68380
# 86685
# 105890
# 121644
# 139050
# 158255
# 178061
# 196666
#
# Disc length: 2904 seconds
#
# Revision: 0
# Processed by: cddbd v1.5.1PL0 Copyright (c) Steve Scherf et al.
# Submitted via: Axialis_AX_CDPlayer 2.6
#
DISCID=830b560c
DTITLE=Darryl Worley - Darryl Worley
DYEAR=1900
DGENRE=
TTITLE0=Awful Beautiful Life
TTITLE1=If I Could Tell The Truth
TTITLE2=I Love Her, She Hates Me
TTITLE3=If Something Should Happen
TTITLE4=Work And Worry
TTITLE5=If It Hadn't Been For Love
TTITLE6=Was It Good For You
TTITLE7=Find Me
TTITLE8=Wake Up America
TTITLE9=What Makes A Man Do That
TTITLE10=Better Than I Deserve
TTITLE11=Whistle Dixie
EXTD=Release Date: November 2, 2004 - Produced By. Frank Rogers
EXTT0=
EXTT1=
EXTT2=
EXTT3=
EXTT4=
EXTT5=
EXTT6=
EXTT7=
EXTT8=
EXTT9=
EXTT10=
EXTT11=
PLAYORDER=
